<?xml version="1.0" encoding="UTF-8" standalone="no"?>
<svg
   xmlns:dc="http://purl.org/dc/elements/1.1/"
   xmlns:cc="http://creativecommons.org/ns#"
   xmlns:rdf="http://www.w3.org/1999/02/22-rdf-syntax-ns#"
   xmlns:svg="http://www.w3.org/2000/svg"
   xmlns="http://www.w3.org/2000/svg"
   viewBox="0 0 816 1056"
   height="1056"
   width="816"
   xml:space="preserve"
   id="svg2"
   version="1.1"><metadata
     id="metadata8"><rdf:RDF><cc:Work
         rdf:about=""><dc:format>image/svg+xml</dc:format><dc:type
           rdf:resource="http://purl.org/dc/dcmitype/StillImage" /></cc:Work></rdf:RDF></metadata><defs
     id="defs6"><clipPath
       id="clipPath18"
       clipPathUnits="userSpaceOnUse"><path
         id="path16"
         d="M 0,792 H 612 V 0 H 0 Z" /></clipPath></defs><g
     transform="matrix(1.3333333,0,0,-1.3333333,0,1056)"
     id="g10"><g
       id="g12"><g
         clip-path="url(#clipPath18)"
         id="g14"><g
           transform="translate(228.2245,373.2344)"
           id="g20"><path
             id="path22"
             style="fill:#ffffff;fill-opacity:1;fill-rule:nonzero;stroke:none"
             d="m 0,0 c 0.109,-0.095 0.219,-0.19 0.328,-0.284 -1.93,-5.495 -3.774,-11.017 -5.822,-16.473 -1.155,-3.075 -2.566,-6.077 -4.02,-9.047 -0.825,-1.684 -1.719,-3.436 -3.023,-4.809 -2.839,-2.987 -5.977,-5.736 -8.955,-8.616 -0.914,-0.884 -1.859,-1.791 -2.522,-2.831 -1.972,-3.096 -0.171,-8.118 3.527,-9.547 0.086,-0.033 0.176,-0.066 0.252,-0.114 1.17,-0.751 2.515,-0.729 3.677,-0.276 2.579,1.006 4.66,2.729 6.748,4.394 1.029,0.82 1.989,1.732 2.854,2.697 1.639,1.828 3.121,3.774 4.789,5.578 2.111,2.285 4.36,4.463 6.517,6.713 2.178,2.271 4.334,4.56 6.467,6.867 2.194,2.373 4.367,4.761 6.514,7.169 2.07,2.32 4.109,4.663 6.135,7.015 2.026,2.353 4.03,4.722 6.023,7.098 2.394,2.855 4.776,5.719 7.142,8.594 0.842,1.023 1.596,2.108 2.442,3.129 0.325,0.391 0.738,0.865 1.21,0.986 1.888,0.485 3.811,0.861 5.729,1.25 3.324,0.674 6.654,1.331 9.983,1.988 0.59,0.117 1.188,0.199 1.853,0.308 -0.135,-0.367 -0.205,-0.618 -0.317,-0.852 -1.94,-4.058 -3.826,-8.14 -5.847,-12.164 -1.981,-3.943 -4.019,-7.867 -6.182,-11.729 -2.69,-4.804 -5.489,-9.559 -8.33,-14.29 -1.909,-3.178 -3.917,-6.309 -5.982,-9.404 -2.439,-3.656 -5.031,-7.227 -7.475,-10.881 -2.113,-3.16 -1.288,-6.331 1.735,-8.472 2.36,-1.671 5.069,-1.734 7.762,-0.661 1.164,0.463 2.26,1.072 3.368,1.645 1.191,0.615 2.39,1.224 3.532,1.91 2.626,1.576 5.264,3.142 7.813,4.817 2.147,1.41 4.229,2.913 6.247,4.474 3.02,2.336 5.978,4.74 8.924,7.153 1.81,1.482 3.571,3.016 5.314,4.564 2.613,2.322 5.215,4.656 7.78,7.022 2.521,2.327 5.011,4.683 7.477,7.058 2.835,2.731 5.669,5.464 8.429,8.256 2.652,2.683 5.221,5.434 7.805,8.172 2.198,2.331 4.388,4.669 6.541,7.035 2.972,3.265 5.914,6.554 8.856,9.843 1.778,1.988 3.539,3.989 5.295,5.994 0.779,0.89 1.579,1.771 2.264,2.72 0.411,0.57 0.868,0.902 1.604,1.029 1.91,0.33 3.816,0.686 5.71,1.086 2.604,0.549 5.196,1.148 7.907,1.751 0.031,-0.489 0.036,-0.798 0.071,-1.105 0.589,-5.205 3.364,-9.11 8.666,-11.17 3.834,-1.489 7.692,-1.161 11.332,0.875 1.757,0.982 3.14,2.267 4.297,3.757 0.642,0.825 1.107,1.79 1.506,2.743 1.313,3.132 1.38,6.313 0.189,9.506 -1.511,4.048 -4.456,6.896 -8.904,8.2 -3.085,0.904 -6.188,0.751 -9.204,-0.648 -1.39,-0.644 -3.052,-0.807 -4.598,-1.164 -1.122,-0.259 -2.258,-0.466 -3.381,-0.721 -1.283,-0.291 -2.558,-0.61 -3.837,-0.918 0.832,1.361 1.749,2.542 2.686,3.709 2.527,3.151 5.075,6.287 7.59,9.445 2.497,3.136 4.993,6.273 7.434,9.445 2.192,2.848 4.317,5.738 6.453,8.621 0.751,1.013 1.426,2.073 2.17,3.09 0.724,0.988 1.492,1.948 2.28,2.971 0.219,-0.272 0.384,-0.443 0.508,-0.637 1.959,-3.036 5.061,-4.608 8.638,-5.448 1.627,-0.382 3.3,-0.303 4.99,0.151 2.196,0.588 4.216,1.329 5.929,2.775 1.336,1.127 2.458,2.389 3.217,3.86 2.042,3.957 2.248,8.009 0.212,12.046 -2.005,3.975 -5.248,6.632 -10.112,7.234 -3.796,0.47 -7.355,-0.341 -10.821,-1.821 -3.173,-1.356 -6.146,-2.923 -8.641,-5.167 -1.333,-1.199 -2.701,-2.403 -3.792,-3.778 -2.067,-2.605 -3.953,-5.329 -5.898,-8.013 -1.602,-2.211 -3.121,-4.475 -4.784,-6.647 -3.132,-4.091 -6.32,-8.145 -9.527,-12.187 -1.65,-2.078 -3.394,-4.093 -5.089,-6.142 -3.028,-3.659 -6.047,-7.324 -9.075,-10.983 -1.712,-2.068 -3.42,-4.139 -5.165,-6.183 -0.289,-0.339 -0.717,-0.691 -1.151,-0.794 -2.142,-0.512 -4.303,-0.959 -6.466,-1.397 -3.415,-0.692 -6.835,-1.368 -10.257,-2.033 -4.956,-0.963 -9.915,-1.912 -14.873,-2.864 -0.65,-0.125 -1.304,-0.23 -1.944,-0.343 1.917,5.499 3.934,10.854 5.644,16.29 2.395,7.614 4.679,15.261 6.787,22.947 1.476,5.383 2.614,10.848 3.83,16.29 0.437,1.958 0.837,3.949 0.937,5.939 0.145,2.862 -2.034,5.512 -4.873,6.418 -2.418,0.772 -5.446,-0.108 -6.594,-1.734 -1.15,-1.627 -2.358,-3.22 -3.502,-4.85 -2.208,-3.147 -4.383,-6.312 -6.582,-9.464 -2.249,-3.224 -4.508,-6.443 -6.77,-9.66 C 65.428,65.209 63.259,62.108 61.06,59.025 58.213,55.035 55.347,51.056 52.475,47.08 50.789,44.746 49.093,42.418 47.37,40.106 44.4,36.12 41.429,32.134 38.412,28.177 36.216,25.298 33.94,22.47 31.71,19.612 c -0.777,-0.996 -1.502,-2.027 -2.3,-3.008 -0.18,-0.222 -0.549,-0.373 -0.861,-0.439 -1.283,-0.269 -2.583,-0.476 -3.869,-0.738 -2.116,-0.432 -4.226,-0.89 -6.425,-1.355 0.052,0.357 0.063,0.641 0.136,0.91 1.958,7.251 3.879,14.51 5.903,21.745 1.109,3.961 2.283,7.912 3.632,11.807 1.226,3.539 2.719,7.001 4.131,10.483 0.115,0.283 0.482,0.604 0.795,0.671 1.144,0.247 2.317,0.38 3.473,0.582 2.976,0.519 5.91,1.092 8.734,2.2 3.264,1.28 6.31,2.81 9.16,4.742 3.038,2.059 5.363,4.585 6.902,7.731 1.429,2.922 1.982,5.974 1.443,9.146 -0.418,2.454 -1.51,4.64 -3.382,6.509 -1.964,1.962 -4.187,3.405 -7.167,3.713 -2.817,0.292 -5.396,-0.349 -7.87,-1.482 -0.953,-0.437 -1.967,-0.797 -2.833,-1.347 -2.582,-1.642 -5.094,-3.375 -7.202,-5.535 -1.226,-1.257 -2.593,-2.425 -3.636,-3.799 -2.005,-2.642 -3.836,-5.396 -5.71,-8.121 -0.293,-0.425 -0.557,-0.629 -1.12,-0.443 -1.994,0.656 -4.01,1.256 -5.992,1.941 -2.682,0.928 -4.88,2.573 -7.09,4.178 -0.64,0.465 -1.141,1.089 -1.513,1.453 1.169,1.449 2.406,2.742 3.346,4.196 2.075,3.211 2.399,6.703 1.401,10.29 -1.153,4.146 -3.949,7.167 -8.216,8.817 -3.108,1.202 -6.357,1.21 -9.57,-0.105 -2.667,-1.091 -4.739,-2.688 -6.283,-4.928 -2.143,-3.112 -2.656,-6.484 -2.014,-10.065 0.352,-1.96 1.466,-3.635 2.348,-5.407 2.042,-4.104 4.689,-7.847 7.995,-11.172 1.74,-1.751 3.646,-3.404 5.682,-4.862 3.308,-2.37 6.927,-4.321 10.863,-5.722 1.187,-0.423 2.41,-0.761 3.683,-1.159 C 18.073,60.484 17.885,60.004 17.706,59.52 16.393,55.973 14.897,52.473 13.807,48.869 11.449,41.068 9.262,33.222 7.077,25.377 5.819,20.858 4.711,16.304 3.498,11.773 3.413,11.454 3.086,11.058 2.767,10.949 1.815,10.624 0.814,10.412 -0.173,10.176 -3.374,9.408 -6.564,8.597 -9.784,7.902 -12.652,7.283 -15.544,6.747 -18.445,6.266 -20.64,5.901 -22.864,5.68 -25.291,5.367 c 0.173,0.416 0.215,0.544 0.277,0.663 0.921,1.767 1.597,3.594 1.728,5.572 0.321,4.824 -1.536,8.835 -5.629,11.884 -2.136,1.592 -4.779,2.241 -7.503,2.454 -0.75,0.059 -1.525,-0.176 -2.29,-0.268 -3.274,-0.394 -5.922,-1.869 -7.979,-4.128 -2.542,-2.792 -3.616,-6.095 -3.419,-9.737 0.165,-3.051 1.423,-5.772 3.421,-8.142 1.692,-2.008 4.002,-3.512 6.464,-4.621 2.342,-1.055 4.854,-1.928 7.396,-2.449 4.852,-0.995 9.771,-0.988 14.667,-0.093 1.752,0.32 3.538,0.481 5.295,0.777 1.944,0.327 3.882,0.691 5.806,1.103 C -4.696,-1.113 -2.352,-0.542 0,0" /></g><g
           transform="translate(272.0707,450.0811)"
           id="g24"><path
             id="path26"
             style="fill:#ffffff;fill-opacity:1;fill-rule:nonzero;stroke:none"
             d="M 0,0 C 0.068,-0.076 0.137,-0.152 0.205,-0.229 1.528,0.783 3.303,1.286 4.26,2.709 4.205,2.773 4.149,2.838 4.093,2.902 2.729,1.935 1.364,0.967 0,0 m -24.768,-72.897 c -1.019,-0.182 -1.799,-0.381 -2.593,-0.449 -0.906,-0.078 -1.343,-0.421 -1.526,-1.274 -0.319,-1.482 -0.802,-2.934 -1.216,-4.399 0.04,-0.013 0.08,-0.026 0.12,-0.039 1.688,1.995 3.376,3.989 5.215,6.161 m 54.487,49.019 c -0.077,0.042 -0.155,0.084 -0.232,0.126 -0.423,-0.622 -0.834,-1.252 -1.272,-1.865 -2.182,-3.056 -4.357,-6.115 -6.562,-9.157 -2.326,-3.209 -4.662,-6.412 -7.031,-9.595 -2.14,-2.877 -4.335,-5.721 -6.495,-8.585 -0.844,-1.12 -1.661,-2.258 -2.576,-3.504 0.395,0.041 0.638,0.044 0.868,0.095 1.268,0.275 2.526,0.596 3.802,0.839 2.639,0.501 5.29,0.951 7.929,1.456 0.309,0.06 0.688,0.275 0.828,0.517 0.347,0.604 0.605,1.256 0.846,1.905 2.26,6.086 4.547,12.165 6.747,18.27 1.132,3.141 2.104,6.33 3.148,9.498 m 28.228,-32.659 c -0.04,0.07 -0.08,0.139 -0.119,0.209 -1.122,-0.285 -2.233,-0.617 -3.368,-0.847 -3.844,-0.78 -7.696,-1.522 -11.545,-2.281 -3.329,-0.657 -6.631,-1.491 -9.997,-1.916 -2.201,-0.278 -3.36,-1.153 -3.755,-3.052 -0.023,-0.11 -0.093,-0.212 -0.141,-0.317 -1.582,-3.485 -3.08,-7.003 -4.764,-10.445 -2.909,-5.943 -5.893,-11.857 -8.929,-17.747 -1.478,-2.867 -3.148,-5.651 -4.729,-8.474 -0.604,-1.077 -1.202,-2.158 -1.625,-2.919 1.081,0.838 2.461,1.816 3.724,2.907 2.785,2.406 5.522,4.859 8.255,7.315 1.598,1.437 3.163,2.905 4.72,4.381 2.55,2.418 5.105,4.833 7.614,7.287 2.297,2.246 4.562,4.521 6.794,6.821 3.083,3.176 6.13,6.381 9.177,9.587 1.965,2.067 3.914,4.148 5.845,6.243 0.977,1.06 1.897,2.164 2.843,3.248 m -101.793,-20.31 c -2.352,-0.542 -4.696,-1.113 -7.057,-1.618 -1.924,-0.412 -3.862,-0.775 -5.806,-1.103 -1.757,-0.295 -3.544,-0.456 -5.295,-0.776 -4.897,-0.895 -9.816,-0.902 -14.667,0.092 -2.542,0.521 -5.054,1.395 -7.397,2.45 -2.461,1.108 -4.771,2.612 -6.463,4.62 -1.998,2.37 -3.256,5.092 -3.421,8.143 -0.197,3.642 0.877,6.944 3.419,9.737 2.057,2.259 4.705,3.733 7.979,4.127 0.765,0.092 1.54,0.327 2.29,0.268 2.724,-0.212 5.366,-0.862 7.503,-2.454 4.093,-3.049 5.95,-7.059 5.629,-11.883 -0.131,-1.978 -0.807,-3.806 -1.728,-5.573 -0.062,-0.119 -0.104,-0.247 -0.277,-0.662 2.426,0.312 4.651,0.533 6.846,0.898 2.901,0.481 5.793,1.017 8.661,1.636 3.22,0.695 6.41,1.506 9.611,2.274 0.987,0.237 1.988,0.448 2.939,0.774 0.319,0.109 0.647,0.505 0.732,0.824 1.212,4.53 2.32,9.084 3.579,13.603 2.185,7.845 4.372,15.691 6.73,23.493 1.09,3.604 2.586,7.104 3.899,10.65 0.179,0.484 0.367,0.965 0.578,1.519 -1.273,0.398 -2.496,0.736 -3.683,1.159 -3.936,1.402 -7.555,3.352 -10.863,5.722 -2.036,1.459 -3.942,3.111 -5.682,4.862 -3.306,3.325 -5.953,7.069 -7.995,11.172 -0.882,1.772 -1.997,3.447 -2.348,5.408 -0.642,3.58 -0.129,6.953 2.014,10.064 1.544,2.24 3.616,3.838 6.283,4.929 3.213,1.314 6.462,1.307 9.57,0.105 4.267,-1.651 7.063,-4.671 8.216,-8.817 0.998,-3.588 0.674,-7.08 -1.402,-10.291 -0.939,-1.454 -2.176,-2.747 -3.345,-4.196 0.372,-0.363 0.873,-0.988 1.513,-1.452 2.21,-1.605 4.408,-3.251 7.09,-4.178 1.982,-0.686 3.998,-1.285 5.992,-1.942 0.563,-0.185 0.827,0.018 1.12,0.444 1.874,2.724 3.704,5.478 5.71,8.121 1.042,1.373 2.41,2.542 3.636,3.798 2.108,2.161 4.62,3.893 7.202,5.535 0.866,0.551 1.88,0.911 2.832,1.347 2.475,1.133 5.054,1.775 7.871,1.483 2.98,-0.309 5.203,-1.752 7.167,-3.713 1.872,-1.87 2.964,-4.056 3.382,-6.51 0.539,-3.171 -0.014,-6.224 -1.443,-9.146 -1.539,-3.146 -3.864,-5.672 -6.902,-7.731 -2.85,-1.932 -5.896,-3.462 -9.16,-4.742 -2.824,-1.107 -5.758,-1.681 -8.734,-2.2 -1.157,-0.201 -2.33,-0.334 -3.473,-0.581 -0.313,-0.068 -0.68,-0.389 -0.795,-0.671 -1.412,-3.483 -2.905,-6.944 -4.131,-10.483 -1.349,-3.896 -2.524,-7.847 -3.632,-11.807 -2.024,-7.235 -3.945,-14.495 -5.903,-21.745 -0.073,-0.27 -0.084,-0.554 -0.136,-0.91 2.199,0.465 4.309,0.922 6.425,1.354 1.286,0.263 2.586,0.469 3.869,0.739 0.312,0.065 0.68,0.216 0.861,0.438 0.798,0.982 1.523,2.012 2.3,3.009 2.23,2.857 4.506,5.685 6.702,8.565 3.017,3.956 5.988,7.942 8.958,11.928 1.723,2.312 3.419,4.64 5.105,6.974 2.872,3.976 5.738,7.955 8.584,11.946 2.2,3.083 4.369,6.184 6.545,9.28 2.261,3.218 4.521,6.437 6.77,9.661 2.199,3.151 4.374,6.317 6.581,9.463 1.145,1.631 2.353,3.223 3.503,4.851 1.148,1.625 4.176,2.506 6.594,1.734 2.838,-0.906 5.018,-3.556 4.873,-6.419 -0.1,-1.99 -0.5,-3.981 -0.938,-5.939 -1.215,-5.442 -2.353,-10.906 -3.829,-16.29 -2.108,-7.685 -4.392,-15.333 -6.787,-22.947 -1.711,-5.436 -3.727,-10.79 -5.645,-16.289 0.641,0.112 1.295,0.218 1.945,0.342 4.958,0.952 9.917,1.901 14.873,2.864 3.422,0.665 6.842,1.341 10.257,2.033 2.163,0.438 4.324,0.885 6.466,1.397 0.434,0.104 0.862,0.456 1.151,0.794 1.745,2.045 3.453,4.115 5.165,6.184 3.028,3.658 6.047,7.323 9.075,10.982 1.694,2.049 3.439,4.064 5.089,6.143 3.207,4.041 6.395,8.096 9.526,12.186 1.664,2.172 3.183,4.436 4.785,6.647 1.945,2.684 3.831,5.409 5.897,8.013 1.091,1.375 2.46,2.58 3.793,3.779 2.495,2.244 5.468,3.811 8.641,5.166 3.466,1.48 7.025,2.291 10.821,1.822 4.864,-0.602 8.107,-3.259 10.111,-7.234 2.037,-4.038 1.83,-8.09 -0.211,-12.047 -0.759,-1.471 -1.881,-2.733 -3.217,-3.86 -1.713,-1.446 -3.733,-2.186 -5.929,-2.775 -1.691,-0.453 -3.363,-0.533 -4.99,-0.15 -3.577,0.84 -6.679,2.411 -8.638,5.448 -0.125,0.193 -0.29,0.365 -0.508,0.637 -0.788,-1.023 -1.556,-1.984 -2.28,-2.972 -0.744,-1.017 -1.42,-2.076 -2.17,-3.09 -2.136,-2.883 -4.261,-5.773 -6.453,-8.621 -2.441,-3.171 -4.937,-6.308 -7.434,-9.444 -2.515,-3.159 -5.063,-6.295 -7.59,-9.445 -0.937,-1.168 -1.854,-2.348 -2.687,-3.709 1.279,0.307 2.555,0.626 3.838,0.917 1.123,0.255 2.259,0.462 3.381,0.721 1.545,0.358 3.208,0.52 4.598,1.165 3.016,1.398 6.119,1.551 9.204,0.647 4.448,-1.304 7.393,-4.151 8.904,-8.2 1.191,-3.193 1.124,-6.373 -0.189,-9.505 -0.399,-0.953 -0.864,-1.918 -1.506,-2.743 -1.158,-1.49 -2.54,-2.776 -4.297,-3.758 -3.64,-2.035 -7.499,-2.364 -11.332,-0.874 -5.302,2.059 -8.077,5.965 -8.666,11.169 -0.035,0.307 -0.041,0.616 -0.071,1.105 -2.711,-0.603 -5.303,-1.202 -7.907,-1.751 -1.894,-0.399 -3.8,-0.756 -5.71,-1.086 -0.737,-0.127 -1.193,-0.459 -1.604,-1.029 -0.685,-0.949 -1.485,-1.83 -2.264,-2.72 -1.756,-2.005 -3.517,-4.006 -5.295,-5.994 -2.942,-3.288 -5.884,-6.577 -8.856,-9.843 -2.154,-2.365 -4.343,-4.704 -6.542,-7.035 -2.583,-2.738 -5.153,-5.489 -7.804,-8.171 -2.761,-2.793 -5.594,-5.526 -8.429,-8.256 -2.466,-2.376 -4.956,-4.732 -7.478,-7.058 -2.564,-2.367 -5.166,-4.701 -7.78,-7.023 -1.742,-1.548 -3.503,-3.081 -5.313,-4.564 -2.946,-2.413 -5.905,-4.816 -8.924,-7.153 -2.018,-1.561 -4.1,-3.064 -6.247,-4.474 -2.55,-1.675 -5.187,-3.24 -7.813,-4.817 -1.142,-0.685 -2.341,-1.294 -3.532,-1.91 -1.108,-0.573 -2.204,-1.181 -3.368,-1.645 -2.693,-1.073 -5.402,-1.01 -7.762,0.661 -3.023,2.141 -3.848,5.312 -1.735,8.472 2.443,3.654 5.036,7.225 7.475,10.881 2.065,3.096 4.073,6.226 5.981,9.404 2.842,4.731 5.64,9.486 8.331,14.29 2.163,3.862 4.201,7.786 6.182,11.73 2.021,4.024 3.907,8.105 5.847,12.163 0.112,0.234 0.182,0.485 0.317,0.852 -0.665,-0.109 -1.264,-0.191 -1.854,-0.307 -3.329,-0.658 -6.658,-1.315 -9.982,-1.989 -1.918,-0.389 -3.841,-0.765 -5.73,-1.25 -0.471,-0.121 -0.884,-0.595 -1.209,-0.986 -0.846,-1.021 -1.6,-2.105 -2.442,-3.129 -2.366,-2.875 -4.748,-5.738 -7.142,-8.593 -1.993,-2.377 -3.997,-4.746 -6.023,-7.099 -2.026,-2.352 -4.065,-4.694 -6.135,-7.014 -2.147,-2.408 -4.32,-4.797 -6.514,-7.17 -2.133,-2.306 -4.289,-4.596 -6.467,-6.867 -2.157,-2.25 -4.406,-4.428 -6.518,-6.712 -1.667,-1.805 -3.149,-3.751 -4.788,-5.579 -0.865,-0.965 -1.825,-1.876 -2.854,-2.697 -2.088,-1.665 -4.169,-3.387 -6.748,-4.393 -1.162,-0.454 -2.507,-0.475 -3.677,0.275 -0.076,0.049 -0.166,0.081 -0.252,0.115 -3.699,1.428 -5.5,6.451 -3.527,9.546 0.663,1.04 1.608,1.948 2.522,2.831 2.978,2.88 6.116,5.629 8.955,8.617 1.304,1.372 2.198,3.124 3.023,4.809 1.454,2.969 2.865,5.971 4.019,9.046 2.049,5.457 3.893,10.978 5.823,16.473 -0.11,0.095 -0.219,0.19 -0.328,0.284" /></g><g
           transform="translate(330.0175,393.544)"
           id="g28"><path
             id="path30"
             style="fill:#231f20;fill-opacity:1;fill-rule:nonzero;stroke:none"
             d="m 0,0 c -0.946,-1.084 -1.866,-2.188 -2.843,-3.248 -1.931,-2.095 -3.88,-4.175 -5.845,-6.243 -3.046,-3.206 -6.094,-6.41 -9.177,-9.587 -2.232,-2.3 -4.497,-4.575 -6.794,-6.821 -2.509,-2.454 -5.063,-4.869 -7.614,-7.287 -1.556,-1.476 -3.122,-2.944 -4.72,-4.381 -2.733,-2.456 -5.47,-4.908 -8.255,-7.315 -1.262,-1.091 -2.643,-2.069 -3.724,-2.907 0.424,0.761 1.021,1.842 1.625,2.919 1.581,2.823 3.251,5.607 4.729,8.475 3.037,5.889 6.02,11.803 8.929,17.746 1.684,3.442 3.182,6.961 4.764,10.445 0.048,0.105 0.118,0.207 0.141,0.317 0.396,1.899 1.554,2.774 3.756,3.052 3.365,0.425 6.667,1.259 9.996,1.916 3.849,0.759 7.701,1.501 11.545,2.281 1.135,0.23 2.246,0.562 3.368,0.847 C -0.079,0.139 -0.04,0.07 0,0" /></g><g
           transform="translate(301.79,426.2028)"
           id="g32"><path
             id="path34"
             style="fill:#231f20;fill-opacity:1;fill-rule:nonzero;stroke:none"
             d="m 0,0 c -1.044,-3.168 -2.017,-6.357 -3.149,-9.498 -2.2,-6.105 -4.486,-12.183 -6.747,-18.27 -0.241,-0.649 -0.498,-1.301 -0.845,-1.904 -0.14,-0.243 -0.519,-0.458 -0.829,-0.518 -2.638,-0.505 -5.289,-0.955 -7.928,-1.456 -1.276,-0.243 -2.534,-0.564 -3.803,-0.839 -0.23,-0.05 -0.472,-0.054 -0.867,-0.095 0.915,1.246 1.731,2.384 2.576,3.504 2.16,2.865 4.355,5.708 6.495,8.585 2.368,3.183 4.705,6.386 7.031,9.595 2.204,3.042 4.38,6.102 6.562,9.157 0.438,0.613 0.849,1.243 1.272,1.865 C -0.155,0.084 -0.077,0.042 0,0" /></g><g
           transform="translate(247.3029,377.1842)"
           id="g36"><path
             id="path38"
             style="fill:#231f20;fill-opacity:1;fill-rule:nonzero;stroke:none"
             d="m 0,0 c -1.839,-2.172 -3.527,-4.166 -5.216,-6.161 -0.04,0.013 -0.08,0.026 -0.12,0.039 0.415,1.465 0.898,2.917 1.216,4.399 0.184,0.853 0.62,1.196 1.527,1.274 C -1.799,-0.381 -1.02,-0.183 0,0" /></g><g
           transform="translate(272.0707,450.0811)"
           id="g40"><path
             id="path42"
             style="fill:#231f20;fill-opacity:1;fill-rule:nonzero;stroke:none"
             d="M 0,0 C 1.364,0.967 2.729,1.935 4.093,2.902 4.149,2.838 4.205,2.773 4.26,2.709 3.303,1.286 1.528,0.783 0.205,-0.229 0.137,-0.152 0.068,-0.076 0,0" /></g><g
           transform="translate(192.908,234.9437)"
           id="g44"><path
             id="path46"
             style="fill:none;stroke:#ffffff;stroke-width:50;stroke-linecap:butt;stroke-linejoin:miter;stroke-miterlimit:10;stroke-dasharray:none;stroke-opacity:1"
             d="m 0,0 -86.267,149.419 c -4.158,7.201 -4.158,16.073 0,23.274 L 0,322.113 c 4.158,7.201 11.841,11.637 20.156,11.637 H 192.69 c 8.316,0 15.999,-4.436 20.156,-11.637 l 86.268,-149.42 c 4.157,-7.201 4.157,-16.073 0,-23.274 L 212.846,0 c -4.157,-7.201 -11.84,-11.637 -20.156,-11.637 H 20.156 C 11.841,-11.637 4.158,-7.201 0,0 Z" /></g><g
           transform="translate(215.5497,247.9281)"
           id="g48"><path
             id="path50"
             style="fill:#231f20;fill-opacity:1;fill-rule:nonzero;stroke:none"
             d="m 0,0 -69.55,-0.178 -29.875,51 h 71.214 z" /></g><g
           transform="translate(482.5779,492)"
           id="g52"><path
             id="path54"
             style="fill:#231f20;fill-opacity:1;fill-rule:nonzero;stroke:none"
             d="M 0,0 H -72.578 L -101.745,51.625 -30.911,52 Z" /></g><g
           transform="translate(473.375,489.3027)"
           id="g56"><path
             id="path58"
             style="fill:#ffffff;fill-opacity:1;fill-rule:nonzero;stroke:none"
             d="M 0,0 H -306.778 V 3 H -1.734 Z" /></g><g
           transform="translate(127.5,297.5625)"
           id="g60"><path
             id="path62"
             style="fill:#ffffff;fill-opacity:1;fill-rule:nonzero;stroke:none"
             d="m 0,0 -1.88,3.625 296.308,1 0.009,-3 z" /></g></g></g></g></svg>