<?xml version="1.0" encoding="utf-8"?>
<!-- Generator: Adobe Illustrator 19.0.0, SVG Export Plug-In . SVG Version: 6.00 Build 0)  -->
<svg version="1.1" id="Layer_1" xmlns="http://www.w3.org/2000/svg" xmlns:xlink="http://www.w3.org/1999/xlink" x="0px" y="0px"
	 viewBox="0 0 612 792" style="enable-background:new 0 0 612 792;" xml:space="preserve">
<style type="text/css">
	.st0{fill:none;}
	.st1{fill:#FFFFFF;}
</style>
<rect id="_x3C_Slice_x3E_" x="394.1" y="237" class="st0" width="7" height="5"/>
<path id="XMLID_45_" class="st0" d="M235.4,444.7c0.1,0.1,0.2,0.2,0.3,0.3c-1.9,5.5-3.8,11-5.8,16.5c-1.2,3.1-2.6,6.1-4,9
	c-0.8,1.7-1.7,3.4-3,4.8c-2.8,3-6,5.7-9,8.6c-0.9,0.9-1.9,1.8-2.5,2.8c-2,3.1-0.2,8.1,3.5,9.5c0.1,0,0.2,0.1,0.3,0.1
	c1.2,0.8,2.5,0.7,3.7,0.3c2.6-1,4.7-2.7,6.7-4.4c1-0.8,2-1.7,2.9-2.7c1.6-1.8,3.1-3.8,4.8-5.6c2.1-2.3,4.4-4.5,6.5-6.7
	c2.2-2.3,4.3-4.6,6.5-6.9c2.2-2.4,4.4-4.8,6.5-7.2c2.1-2.3,4.1-4.7,6.1-7c2-2.4,4-4.7,6-7.1c2.4-2.9,4.8-5.7,7.1-8.6
	c0.8-1,1.6-2.1,2.4-3.1c0.3-0.4,0.7-0.9,1.2-1c1.9-0.5,3.8-0.9,5.7-1.2c3.3-0.7,6.7-1.3,10-2c0.6-0.1,1.2-0.2,1.9-0.3
	c-0.1,0.4-0.2,0.6-0.3,0.9c-1.9,4.1-3.8,8.1-5.8,12.2c-2,3.9-4,7.9-6.2,11.7c-2.7,4.8-5.5,9.6-8.3,14.3c-1.9,3.2-3.9,6.3-6,9.4
	c-2.4,3.7-5,7.2-7.5,10.9c-2.1,3.2-1.3,6.3,1.7,8.5c2.4,1.7,5.1,1.7,7.8,0.7c1.2-0.5,2.3-1.1,3.4-1.6c1.2-0.6,2.4-1.2,3.5-1.9
	c2.6-1.6,5.3-3.1,7.8-4.8c2.1-1.4,4.2-2.9,6.2-4.5c3-2.3,6-4.7,8.9-7.2c1.8-1.5,3.6-3,5.3-4.6c2.6-2.3,5.2-4.7,7.8-7
	c2.5-2.3,5-4.7,7.5-7.1c2.8-2.7,5.7-5.5,8.4-8.3c2.7-2.7,5.2-5.4,7.8-8.2c2.2-2.3,4.4-4.7,6.5-7c3-3.3,5.9-6.6,8.9-9.8
	c1.8-2,3.5-4,5.3-6c0.8-0.9,1.6-1.8,2.3-2.7c0.4-0.6,0.9-0.9,1.6-1c1.9-0.3,3.8-0.7,5.7-1.1c2.6-0.5,5.2-1.1,7.9-1.8
	c0,0.5,0,0.8,0.1,1.1c0.6,5.2,3.4,9.1,8.7,11.2c3.8,1.5,7.7,1.2,11.3-0.9c1.8-1,3.1-2.3,4.3-3.8c0.6-0.8,1.1-1.8,1.5-2.7
	c1.3-3.1,1.4-6.3,0.2-9.5c-1.5-4-4.5-6.9-8.9-8.2c-3.1-0.9-6.2-0.8-9.2,0.6c-1.4,0.6-3.1,0.8-4.6,1.2c-1.1,0.3-2.3,0.5-3.4,0.7
	c-1.3,0.3-2.6,0.6-3.8,0.9c0.8-1.4,1.7-2.5,2.7-3.7c2.5-3.2,5.1-6.3,7.6-9.4c2.5-3.1,5-6.3,7.4-9.4c2.2-2.8,4.3-5.7,6.5-8.6
	c0.8-1,1.4-2.1,2.2-3.1c0.7-1,1.5-1.9,2.3-3c0.2,0.3,0.4,0.4,0.5,0.6c2,3,5.1,4.6,8.6,5.4c1.6,0.4,3.3,0.3,5-0.2
	c2.2-0.6,4.2-1.3,5.9-2.8c1.3-1.1,2.5-2.4,3.2-3.9c2-4,2.2-8,0.2-12c-2-4-5.2-6.6-10.1-7.2c-3.8-0.5-7.4,0.3-10.8,1.8
	c-3.2,1.4-6.1,2.9-8.6,5.2c-1.3,1.2-2.7,2.4-3.8,3.8c-2.1,2.6-4,5.3-5.9,8c-1.6,2.2-3.1,4.5-4.8,6.6c-3.1,4.1-6.3,8.1-9.5,12.2
	c-1.6,2.1-3.4,4.1-5.1,6.1c-3,3.7-6,7.3-9.1,11c-1.7,2.1-3.4,4.1-5.2,6.2c-0.3,0.3-0.7,0.7-1.2,0.8c-2.1,0.5-4.3,1-6.5,1.4
	c-3.4,0.7-6.8,1.4-10.3,2c-5,1-9.9,1.9-14.9,2.9c-0.6,0.1-1.3,0.2-1.9,0.3c1.9-5.5,3.9-10.9,5.6-16.3c2.4-7.6,4.7-15.3,6.8-22.9
	c1.5-5.4,2.6-10.8,3.8-16.3c0.4-2,0.8-3.9,0.9-5.9c0.1-2.9-2-5.5-4.9-6.4c-2.4-0.8-5.4,0.1-6.6,1.7c-1.1,1.6-2.4,3.2-3.5,4.9
	c-2.2,3.1-4.4,6.3-6.6,9.5c-2.2,3.2-4.5,6.4-6.8,9.7c-2.2,3.1-4.3,6.2-6.5,9.3c-2.8,4-5.7,8-8.6,11.9c-1.7,2.3-3.4,4.7-5.1,7
	c-3,4-5.9,8-9,11.9c-2.2,2.9-4.5,5.7-6.7,8.6c-0.8,1-1.5,2-2.3,3c-0.2,0.2-0.5,0.4-0.9,0.4c-1.3,0.3-2.6,0.5-3.9,0.7
	c-2.1,0.4-4.2,0.9-6.4,1.4c0.1-0.4,0.1-0.6,0.1-0.9c2-7.3,3.9-14.5,5.9-21.7c1.1-4,2.3-7.9,3.6-11.8c1.2-3.5,2.7-7,4.1-10.5
	c0.1-0.3,0.5-0.6,0.8-0.7c1.1-0.2,2.3-0.4,3.5-0.6c3-0.5,5.9-1.1,8.7-2.2c3.3-1.3,6.3-2.8,9.2-4.7c3-2.1,5.4-4.6,6.9-7.7
	c1.4-2.9,2-6,1.4-9.1c-0.4-2.5-1.5-4.6-3.4-6.5c-2-2-4.2-3.4-7.2-3.7c-2.8-0.3-5.4,0.3-7.9,1.5c-1,0.4-2,0.8-2.8,1.3
	c-2.6,1.6-5.1,3.4-7.2,5.5c-1.2,1.3-2.6,2.4-3.6,3.8c-2,2.6-3.8,5.4-5.7,8.1c-0.3,0.4-0.6,0.6-1.1,0.4c-2-0.7-4-1.3-6-1.9
	c-2.7-0.9-4.9-2.6-7.1-4.2c-0.6-0.5-1.1-1.1-1.5-1.5c1.2-1.4,2.4-2.7,3.3-4.2c2.1-3.2,2.4-6.7,1.4-10.3c-1.2-4.1-3.9-7.2-8.2-8.8
	c-3.1-1.2-6.4-1.2-9.6,0.1c-2.7,1.1-4.7,2.7-6.3,4.9c-2.1,3.1-2.7,6.5-2,10.1c0.4,2,1.5,3.6,2.3,5.4c2,4.1,4.7,7.8,8,11.2
	c1.7,1.8,3.6,3.4,5.7,4.9c3.3,2.4,6.9,4.3,10.9,5.7c1.2,0.4,2.4,0.8,3.7,1.2c-0.2,0.6-0.4,1-0.6,1.5c-1.3,3.5-2.8,7-3.9,10.7
	c-2.4,7.8-4.5,15.6-6.7,23.5c-1.3,4.5-2.4,9.1-3.6,13.6c-0.1,0.3-0.4,0.7-0.7,0.8c-1,0.3-2,0.5-2.9,0.8c-3.2,0.8-6.4,1.6-9.6,2.3
	c-2.9,0.6-5.8,1.2-8.7,1.6c-2.2,0.4-4.4,0.6-6.8,0.9c0.2-0.4,0.2-0.5,0.3-0.7c0.9-1.8,1.6-3.6,1.7-5.6c0.3-4.8-1.5-8.8-5.6-11.9
	c-2.1-1.6-4.8-2.2-7.5-2.5c-0.8-0.1-1.5,0.2-2.3,0.3c-3.3,0.4-5.9,1.9-8,4.1c-2.5,2.8-3.6,6.1-3.4,9.7c0.2,3.1,1.4,5.8,3.4,8.1
	c1.7,2,4,3.5,6.5,4.6c2.3,1.1,4.9,1.9,7.4,2.4c4.9,1,9.8,1,14.7,0.1c1.8-0.3,3.5-0.5,5.3-0.8c1.9-0.3,3.9-0.7,5.8-1.1
	C230.7,445.8,233,445.3,235.4,444.7z"/>
<path id="XMLID_39_" class="st1" d="M235.4,444.7c-2.4,0.5-4.7,1.1-7.1,1.6c-1.9,0.4-3.9,0.8-5.8,1.1c-1.8,0.3-3.5,0.5-5.3,0.8
	c-4.9,0.9-9.8,0.9-14.7-0.1c-2.5-0.5-5.1-1.4-7.4-2.4c-2.5-1.1-4.8-2.6-6.5-4.6c-2-2.4-3.3-5.1-3.4-8.1c-0.2-3.6,0.9-6.9,3.4-9.7
	c2.1-2.3,4.7-3.7,8-4.1c0.8-0.1,1.5-0.3,2.3-0.3c2.7,0.2,5.4,0.9,7.5,2.5c4.1,3,5.9,7.1,5.6,11.9c-0.1,2-0.8,3.8-1.7,5.6
	c-0.1,0.1-0.1,0.2-0.3,0.7c2.4-0.3,4.7-0.5,6.8-0.9c2.9-0.5,5.8-1,8.7-1.6c3.2-0.7,6.4-1.5,9.6-2.3c1-0.2,2-0.4,2.9-0.8
	c0.3-0.1,0.6-0.5,0.7-0.8c1.2-4.5,2.3-9.1,3.6-13.6c2.2-7.8,4.4-15.7,6.7-23.5c1.1-3.6,2.6-7.1,3.9-10.7c0.2-0.5,0.4-1,0.6-1.5
	c-1.3-0.4-2.5-0.7-3.7-1.2c-3.9-1.4-7.6-3.4-10.9-5.7c-2-1.5-3.9-3.1-5.7-4.9c-3.3-3.3-6-7.1-8-11.2c-0.9-1.8-2-3.4-2.3-5.4
	c-0.6-3.6-0.1-7,2-10.1c1.5-2.2,3.6-3.8,6.3-4.9c3.2-1.3,6.5-1.3,9.6-0.1c4.3,1.7,7.1,4.7,8.2,8.8c1,3.6,0.7,7.1-1.4,10.3
	c-0.9,1.5-2.2,2.7-3.3,4.2c0.4,0.4,0.9,1,1.5,1.5c2.2,1.6,4.4,3.3,7.1,4.2c2,0.7,4,1.3,6,1.9c0.6,0.2,0.8,0,1.1-0.4
	c1.9-2.7,3.7-5.5,5.7-8.1c1-1.4,2.4-2.5,3.6-3.8c2.1-2.2,4.6-3.9,7.2-5.5c0.9-0.6,1.9-0.9,2.8-1.3c2.5-1.1,5.1-1.8,7.9-1.5
	c3,0.3,5.2,1.8,7.2,3.7c1.9,1.9,3,4.1,3.4,6.5c0.5,3.2,0,6.2-1.4,9.1c-1.5,3.1-3.9,5.7-6.9,7.7c-2.9,1.9-5.9,3.5-9.2,4.7
	c-2.8,1.1-5.8,1.7-8.7,2.2c-1.2,0.2-2.3,0.3-3.5,0.6c-0.3,0.1-0.7,0.4-0.8,0.7c-1.4,3.5-2.9,6.9-4.1,10.5c-1.3,3.9-2.5,7.8-3.6,11.8
	c-2,7.2-3.9,14.5-5.9,21.7c-0.1,0.3-0.1,0.6-0.1,0.9c2.2-0.5,4.3-0.9,6.4-1.4c1.3-0.3,2.6-0.5,3.9-0.7c0.3-0.1,0.7-0.2,0.9-0.4
	c0.8-1,1.5-2,2.3-3c2.2-2.9,4.5-5.7,6.7-8.6c3-4,6-7.9,9-11.9c1.7-2.3,3.4-4.6,5.1-7c2.9-4,5.7-8,8.6-11.9c2.2-3.1,4.4-6.2,6.5-9.3
	c2.3-3.2,4.5-6.4,6.8-9.7c2.2-3.2,4.4-6.3,6.6-9.5c1.1-1.6,2.4-3.2,3.5-4.9c1.1-1.6,4.2-2.5,6.6-1.7c2.8,0.9,5,3.6,4.9,6.4
	c-0.1,2-0.5,4-0.9,5.9c-1.2,5.4-2.4,10.9-3.8,16.3c-2.1,7.7-4.4,15.3-6.8,22.9c-1.7,5.4-3.7,10.8-5.6,16.3c0.6-0.1,1.3-0.2,1.9-0.3
	c5-1,9.9-1.9,14.9-2.9c3.4-0.7,6.8-1.3,10.3-2c2.2-0.4,4.3-0.9,6.5-1.4c0.4-0.1,0.9-0.5,1.2-0.8c1.7-2,3.5-4.1,5.2-6.2
	c3-3.7,6-7.3,9.1-11c1.7-2,3.4-4.1,5.1-6.1c3.2-4,6.4-8.1,9.5-12.2c1.7-2.2,3.2-4.4,4.8-6.6c1.9-2.7,3.8-5.4,5.9-8
	c1.1-1.4,2.5-2.6,3.8-3.8c2.5-2.2,5.5-3.8,8.6-5.2c3.5-1.5,7-2.3,10.8-1.8c4.9,0.6,8.1,3.3,10.1,7.2c2,4,1.8,8.1-0.2,12
	c-0.8,1.5-1.9,2.7-3.2,3.9c-1.7,1.4-3.7,2.2-5.9,2.8c-1.7,0.5-3.4,0.5-5,0.2c-3.6-0.8-6.7-2.4-8.6-5.4c-0.1-0.2-0.3-0.4-0.5-0.6
	c-0.8,1-1.6,2-2.3,3c-0.7,1-1.4,2.1-2.2,3.1c-2.1,2.9-4.3,5.8-6.5,8.6c-2.4,3.2-4.9,6.3-7.4,9.4c-2.5,3.2-5.1,6.3-7.6,9.4
	c-0.9,1.2-1.9,2.3-2.7,3.7c1.3-0.3,2.6-0.6,3.8-0.9c1.1-0.3,2.3-0.5,3.4-0.7c1.5-0.4,3.2-0.5,4.6-1.2c3-1.4,6.1-1.6,9.2-0.6
	c4.4,1.3,7.4,4.2,8.9,8.2c1.2,3.2,1.1,6.4-0.2,9.5c-0.4,1-0.9,1.9-1.5,2.7c-1.2,1.5-2.5,2.8-4.3,3.8c-3.6,2-7.5,2.4-11.3,0.9
	c-5.3-2.1-8.1-6-8.7-11.2c0-0.3,0-0.6-0.1-1.1c-2.7,0.6-5.3,1.2-7.9,1.8c-1.9,0.4-3.8,0.8-5.7,1.1c-0.7,0.1-1.2,0.5-1.6,1
	c-0.7,0.9-1.5,1.8-2.3,2.7c-1.8,2-3.5,4-5.3,6c-2.9,3.3-5.9,6.6-8.9,9.8c-2.2,2.4-4.3,4.7-6.5,7c-2.6,2.7-5.2,5.5-7.8,8.2
	c-2.8,2.8-5.6,5.5-8.4,8.3c-2.5,2.4-5,4.7-7.5,7.1c-2.6,2.4-5.2,4.7-7.8,7c-1.7,1.5-3.5,3.1-5.3,4.6c-2.9,2.4-5.9,4.8-8.9,7.2
	c-2,1.6-4.1,3.1-6.2,4.5c-2.5,1.7-5.2,3.2-7.8,4.8c-1.1,0.7-2.3,1.3-3.5,1.9c-1.1,0.6-2.2,1.2-3.4,1.6c-2.7,1.1-5.4,1-7.8-0.7
	c-3-2.1-3.8-5.3-1.7-8.5c2.4-3.7,5-7.2,7.5-10.9c2.1-3.1,4.1-6.2,6-9.4c2.8-4.7,5.6-9.5,8.3-14.3c2.2-3.9,4.2-7.8,6.2-11.7
	c2-4,3.9-8.1,5.8-12.2c0.1-0.2,0.2-0.5,0.3-0.9c-0.7,0.1-1.3,0.2-1.9,0.3c-3.3,0.7-6.7,1.3-10,2c-1.9,0.4-3.8,0.8-5.7,1.2
	c-0.5,0.1-0.9,0.6-1.2,1c-0.8,1-1.6,2.1-2.4,3.1c-2.4,2.9-4.7,5.7-7.1,8.6c-2,2.4-4,4.7-6,7.1c-2,2.4-4.1,4.7-6.1,7
	c-2.1,2.4-4.3,4.8-6.5,7.2c-2.1,2.3-4.3,4.6-6.5,6.9c-2.2,2.2-4.4,4.4-6.5,6.7c-1.7,1.8-3.1,3.8-4.8,5.6c-0.9,1-1.8,1.9-2.9,2.7
	c-2.1,1.7-4.2,3.4-6.7,4.4c-1.2,0.5-2.5,0.5-3.7-0.3c-0.1,0-0.2-0.1-0.3-0.1c-3.7-1.4-5.5-6.5-3.5-9.5c0.7-1,1.6-1.9,2.5-2.8
	c3-2.9,6.1-5.6,9-8.6c1.3-1.4,2.2-3.1,3-4.8c1.5-3,2.9-6,4-9c2-5.5,3.9-11,5.8-16.5C235.6,444.9,235.5,444.8,235.4,444.7z
	 M337.2,424.4c0-0.1-0.1-0.1-0.1-0.2c-1.1,0.3-2.2,0.6-3.4,0.8c-3.8,0.8-7.7,1.5-11.5,2.3c-3.3,0.7-6.6,1.5-10,1.9
	c-2.2,0.3-3.4,1.2-3.8,3.1c0,0.1-0.1,0.2-0.1,0.3c-1.6,3.5-3.1,7-4.8,10.4c-2.9,5.9-5.9,11.9-8.9,17.7c-1.5,2.9-3.1,5.7-4.7,8.5
	c-0.6,1.1-1.2,2.2-1.6,2.9c1.1-0.8,2.5-1.8,3.7-2.9c2.8-2.4,5.5-4.9,8.3-7.3c1.6-1.4,3.2-2.9,4.7-4.4c2.6-2.4,5.1-4.8,7.6-7.3
	c2.3-2.2,4.6-4.5,6.8-6.8c3.1-3.2,6.1-6.4,9.2-9.6c2-2.1,3.9-4.1,5.8-6.2C335.3,426.6,336.2,425.5,337.2,424.4z M308.9,391.8
	c-0.1,0-0.2-0.1-0.2-0.1c-0.4,0.6-0.8,1.3-1.3,1.9c-2.2,3.1-4.4,6.1-6.6,9.2c-2.3,3.2-4.7,6.4-7,9.6c-2.1,2.9-4.3,5.7-6.5,8.6
	c-0.8,1.1-1.7,2.3-2.6,3.5c0.4,0,0.6,0,0.9-0.1c1.3-0.3,2.5-0.6,3.8-0.8c2.6-0.5,5.3-1,7.9-1.5c0.3-0.1,0.7-0.3,0.8-0.5
	c0.3-0.6,0.6-1.3,0.8-1.9c2.3-6.1,4.5-12.2,6.7-18.3C306.9,398.1,307.9,394.9,308.9,391.8z M254.4,440.8c-1,0.2-1.8,0.4-2.6,0.4
	c-0.9,0.1-1.3,0.4-1.5,1.3c-0.3,1.5-0.8,2.9-1.2,4.4c0,0,0.1,0,0.1,0C250.9,444.9,252.6,443,254.4,440.8z M279.2,367.9
	c0.1,0.1,0.1,0.2,0.2,0.2c1.3-1,3.1-1.5,4.1-2.9c-0.1-0.1-0.1-0.1-0.2-0.2C281.9,365.9,280.6,366.9,279.2,367.9z"/>
<path id="XMLID_38_" class="st0" d="M337.2,424.4c-0.9,1.1-1.9,2.2-2.8,3.2c-1.9,2.1-3.9,4.2-5.8,6.2c-3,3.2-6.1,6.4-9.2,9.6
	c-2.2,2.3-4.5,4.6-6.8,6.8c-2.5,2.5-5.1,4.9-7.6,7.3c-1.6,1.5-3.1,2.9-4.7,4.4c-2.7,2.5-5.5,4.9-8.3,7.3c-1.3,1.1-2.6,2.1-3.7,2.9
	c0.4-0.8,1-1.8,1.6-2.9c1.6-2.8,3.3-5.6,4.7-8.5c3-5.9,6-11.8,8.9-17.7c1.7-3.4,3.2-7,4.8-10.4c0-0.1,0.1-0.2,0.1-0.3
	c0.4-1.9,1.6-2.8,3.8-3.1c3.4-0.4,6.7-1.3,10-1.9c3.8-0.8,7.7-1.5,11.5-2.3c1.1-0.2,2.2-0.6,3.4-0.8
	C337.1,424.3,337.1,424.3,337.2,424.4z"/>
<path id="XMLID_37_" class="st0" d="M308.9,391.8c-1,3.2-2,6.4-3.1,9.5c-2.2,6.1-4.5,12.2-6.7,18.3c-0.2,0.6-0.5,1.3-0.8,1.9
	c-0.1,0.2-0.5,0.5-0.8,0.5c-2.6,0.5-5.3,1-7.9,1.5c-1.3,0.2-2.5,0.6-3.8,0.8c-0.2,0.1-0.5,0.1-0.9,0.1c0.9-1.2,1.7-2.4,2.6-3.5
	c2.2-2.9,4.4-5.7,6.5-8.6c2.4-3.2,4.7-6.4,7-9.6c2.2-3,4.4-6.1,6.6-9.2c0.4-0.6,0.8-1.2,1.3-1.9
	C308.8,391.7,308.9,391.7,308.9,391.8z"/>
<path id="XMLID_36_" class="st0" d="M254.4,440.8c-1.8,2.2-3.5,4.2-5.2,6.2c0,0-0.1,0-0.1,0c0.4-1.5,0.9-2.9,1.2-4.4
	c0.2-0.9,0.6-1.2,1.5-1.3C252.6,441.2,253.4,441,254.4,440.8z"/>
<path id="XMLID_35_" class="st0" d="M279.2,367.9c1.4-1,2.7-1.9,4.1-2.9c0.1,0.1,0.1,0.1,0.2,0.2c-1,1.4-2.7,1.9-4.1,2.9
	C279.3,368,279.3,368,279.2,367.9z"/>
<g id="XMLID_2_">
	<path id="XMLID_14_" class="st1" d="M190.6,516.6L135.9,422l85.3-147.7h170.5l1-0.3c22.3,0,35.2,0.2,56.5,0l-14.8-25.6
		c-8.6-14.9-24.6-24.1-41.8-24.1H220.2c-17.2,0-33.2,9.2-41.8,24.1L92.1,397.8c-8.6,14.9-8.6,33.4,0,48.3l42.5,74.3
		C134.6,520.4,167.4,517,190.6,516.6z"/>
	<path id="XMLID_15_" class="st1" d="M520.8,397.8l-42-72.2c-20.1-0.7-37.2,2.6-57.2,0.3l55.4,96l-85.3,147.7H221.2l0,0
		c-36.4-0.2-38-0.2-57.4-0.4l14.6,26.3v0c8.6,14.9,24.6,24.1,41.8,24.1h172.5c17.2,0,33.2-9.2,41.8-24.1l86.3-149.4
		C529.4,431.2,529.4,412.7,520.8,397.8z"/>
</g>
<g id="XMLID_5_">
	<polygon id="XMLID_9_" class="st1" points="480.5,328.7 173.7,328.7 173.7,325.7 478.8,325.7 	"/>
</g>
<g id="XMLID_6_">
	<polygon id="XMLID_8_" class="st1" points="134.6,520.4 132.8,516.8 429.1,515.8 429.1,518.8 	"/>
</g>
</svg>
