<?xml version="1.0" encoding="utf-8"?>
<!-- Generator: Adobe Illustrator 19.0.0, SVG Export Plug-In . SVG Version: 6.00 Build 0)  -->
<svg version="1.1" id="Layer_1" xmlns="http://www.w3.org/2000/svg" xmlns:xlink="http://www.w3.org/1999/xlink" x="0px" y="0px"
	 viewBox="0 0 500 500" style="enable-background:new 0 0 500 500;" xml:space="preserve">
<style type="text/css">
	.st0{fill:#FFFFFF;stroke:#000000;stroke-width:40;stroke-miterlimit:10;}
</style>
<g id="XMLID_2_">
	<circle id="XMLID_1_" class="st0" cx="251.4" cy="248.1" r="219"/>
	<circle id="XMLID_3_" cx="400.1" cy="167.6" r="19.8"/>
	<g id="XMLID_4_">
		<g id="XMLID_25_">
			<path id="XMLID_29_" d="M126.4,169.2c10.8,23.1,35.6,38.3,61.1,37c13.6-0.7,27.3-5.4,37.8-14.2c10.2-8.6,14.1-25,2.9-34.6
				c-11.9-10.2-27.2,0.3-36,9.4c-9,9.3-15.1,20.7-20,32.6c-10.8,26.2-15.9,54.3-22.5,81.8c-3.7,15.5-7.7,30.9-13.3,45.8
				c-4.4,11.5-10.6,23.6-21.2,30.6c4,5.2,8.1,10.5,12.1,15.7c47.8-47.6,87.3-102.7,124.4-158.8c10.5-15.9,20.8-31.8,31.1-47.8
				c-6.1-2.6-12.2-5.1-18.3-7.7c-9.7,57.9-28.7,114-56.4,165.8c-7.9,14.7-16.5,29.1-25.7,43c-5.9,9,5.4,17.7,13.7,13.7
				c18.3-8.9,34-22.1,48.8-35.8c14.9-13.8,29.1-28.4,42.7-43.5c27.6-30.7,52.8-63.4,77.2-96.7c5.7-7.8,11-15.8,16.4-23.7
				c4.2-6.3,9.1-11,16.5-13.4c-4.1-4.1-8.2-8.2-12.3-12.3c-2.7,10.1,5.5,19.2,14.8,21.8c7.2,2.1,14.9-2.7,13.9-10.8
				c-0.8-5.8-5.9-8.6-10.6-11c-11.4-5.8-21.6,11.4-10.1,17.3c1.2,0.6,2.4,1.4,3.6,2c0.3,0.2,0.7,0.4,1,0.6c-1.7-1.1-2.8-2.7-3.4-4.8
				c0.9-3.2,1.7-6.5,2.6-9.7c0,0,0,0.1-0.1,0.1c1.5-0.9,2.9-1.7,4.4-2.6c-0.6,0.1,6.3,0.1,4.2-0.1c-1.1-0.1,0.7,0.3,1,0.5
				c-0.9-0.5-1.7-0.9-2.6-1.5c-0.4-0.2,0.3,0.6,0.3,0.2c0.2-1.1-1.6,0-0.4-0.3c0.3-0.1,0.1,0.1,0.3,0.5c0.4,1.1,0.7,2.1,0.4,3.3
				c1.9-7.1-4.9-14.7-12.3-12.3c-8.1,2.6-15.4,6.7-21.2,13.1c-5.3,5.9-9.3,12.8-13.7,19.4c-11.1,16.6-23.6,32.5-35.8,48.3
				c-25.4,32.9-52.4,64.7-82.4,93.6c-16.2,15.6-32.9,30.9-53.3,40.8c4.6,4.6,9.1,9.1,13.7,13.7c33.1-50.1,58-105.7,73.4-163.7
				c4.4-16.4,7.9-33.1,10.7-49.8c1.8-10.9-11.8-17.7-18.3-7.7c-35.7,55.4-71.6,111.2-114.4,161.5c-12.1,14.2-24.7,27.9-37.9,41.1
				c-7.9,7.8,2.4,22.1,12.1,15.7c18.9-12.5,27.7-33.5,34.4-54.2c7.6-23.7,12.2-48.1,18.2-72.2c5.2-20.9,10.7-43.3,23.2-61.2
				c2.7-3.8,6-7.5,9.7-10.4c1.1-0.9,5.4-2.7,5.7-3.6c0.1,0,0.2,0,0.3,0c0.5-0.1,0.4-0.1-0.5-0.1c-1.9,4.5-1.2-1-1.3-1
				c1.3-0.6-1.1,3.2-0.7,2.7c-1.1,1.5-2.6,2.7-4.1,3.7c-4.3,2.9-9,4.9-14,6.2c-21.7,5.7-43.1-5.8-52.5-25.7
				c-2.3-4.9-9.3-6.1-13.7-3.6C125,158.4,124.1,164.2,126.4,169.2L126.4,169.2z"/>
		</g>
	</g>
	<g id="XMLID_5_">
		<g id="XMLID_19_">
			<path id="XMLID_23_" d="M76.7,294.2c15.4,13.8,36.5,11,55,6.4c18-4.4,35.9-8.9,53.9-13.1c40.7-9.5,81.5-18.6,122.2-28.1
				c20.9-4.9,41.9-9.8,62.7-15.1c9.4-2.4,5.4-16.8-4-14.5c-74.2,18.8-149.3,34.1-223.7,52.4c-16.1,4-41.2,14.1-55.6,1.2
				C80.1,277.1,69.5,287.7,76.7,294.2L76.7,294.2z"/>
		</g>
	</g>
	<circle id="XMLID_6_" cx="143" cy="158.6" r="19.8"/>
	<circle id="XMLID_7_" cx="90.5" cy="279.6" r="19.8"/>
	<circle id="XMLID_733_" cx="368.5" cy="249.1" r="19.8"/>
</g>
</svg>
